<?xml version="1.0" encoding="UTF-8"?>
<svg version="1.1" xmlns="http://www.w3.org/2000/svg" width="1838" height="369">
<path d="M0 0 C1.82859503 -0.00435941 3.65718824 -0.00954659 5.48577881 -0.01548767 C10.40312516 -0.02875408 15.32039409 -0.02947048 20.23775482 -0.02692437 C24.36270057 -0.02584661 28.48763116 -0.03075822 32.61257362 -0.03552979 C42.35175358 -0.04658134 52.09089495 -0.04708644 61.83007812 -0.04101562 C71.83669233 -0.03497359 81.843166 -0.04730276 91.84975624 -0.06858569 C100.48211365 -0.08626239 109.11442656 -0.09219368 117.74680138 -0.08894795 C122.88464567 -0.08714526 128.02238959 -0.0896694 133.16021729 -0.10366249 C137.99328084 -0.11633628 142.82612669 -0.11420748 147.65918732 -0.1012516 C149.41984382 -0.09890725 151.18051613 -0.10154237 152.94115448 -0.10987473 C166.56405437 -0.16963616 181.15212263 0.1481043 193.4296875 6.7746582 C194.08388672 7.11650146 194.73808594 7.45834473 195.41210938 7.81054688 C209.23879812 15.41353951 220.46921447 28.15800013 225.1796875 43.2746582 C228.66198705 55.3143257 228.61287238 67.01965288 228.58374023 79.44799805 C228.58945241 81.66053103 228.59641993 83.87306108 228.60453796 86.08558655 C228.62239086 92.05882476 228.62131581 98.03191544 228.61559558 104.00517225 C228.61249227 109.00734298 228.61860886 114.00948584 228.62463433 119.01165259 C228.63945167 131.49353751 228.63588799 143.97535725 228.62377102 156.45723899 C228.61384278 167.26087132 228.62677927 178.06433229 228.65070521 188.86793821 C228.67517296 200.00135455 228.68428694 211.13470204 228.67805248 222.26814616 C228.67469448 228.50262344 228.67702082 234.7369592 228.69430351 240.97141647 C228.70985601 246.83702856 228.70572533 252.70231534 228.68699837 258.56791496 C228.68333539 260.70913191 228.68635329 262.85037342 228.69688416 264.99156761 C228.77296364 281.75188904 227.61630335 296.82410111 218.1796875 311.2746582 C217.71691406 311.99008789 217.25414062 312.70551758 216.77734375 313.44262695 C207.8608615 326.21221511 194.1441087 334.50824096 179.1796875 338.2746582 C174.08133861 339.13874844 169.1124759 339.42116924 163.95323181 339.4151001 C162.75238751 339.41955678 162.75238751 339.41955678 161.52728373 339.4241035 C158.85924283 339.43273734 156.19124709 339.43429423 153.52319336 339.43579102 C151.60401312 339.44042302 149.68483379 339.4454482 147.76565552 339.45083618 C142.5607509 339.46392692 137.35585916 339.47039886 132.15094066 339.47484684 C128.89423562 339.47778347 125.63753405 339.48188943 122.38083076 339.48635101 C112.17730951 339.50001835 101.97379625 339.50968825 91.77026647 339.5135529 C80.01829066 339.51802928 68.26643141 339.5355609 56.51449102 339.5645535 C47.41356704 339.58622122 38.31267573 339.59625993 29.21172625 339.59759402 C23.78428792 339.59863858 18.35695928 339.60447147 12.92954826 339.62241364 C7.81838286 339.6389821 2.70740855 339.6410075 -2.40377426 339.63227463 C-4.27008389 339.63150888 -6.13640418 339.63578526 -8.00268745 339.64573288 C-21.49497265 339.71337798 -34.71145399 339.1920422 -46.9453125 332.7746582 C-47.60781006 332.43354004 -48.27030762 332.09242188 -48.95288086 331.7409668 C-62.8137042 324.22724896 -72.18918729 312.46944671 -77.77734375 297.84106445 C-80.27342014 289.30579201 -81.15858367 280.82222931 -81.4453125 271.9621582 C-81.48253418 270.94798828 -81.51975586 269.93381836 -81.55810547 268.88891602 C-82.13335726 252.29939662 -81.477175 235.8604362 -80.8203125 219.2746582 C-71.2503125 219.2746582 -61.6803125 219.2746582 -51.8203125 219.2746582 C-51.8203125 213.3346582 -51.8203125 207.3946582 -51.8203125 201.2746582 C-61.3903125 201.2746582 -70.9603125 201.2746582 -80.8203125 201.2746582 C-82.52944623 197.85639073 -82.00489729 194.04111058 -82.0078125 190.2746582 C-82.02005859 189.44192383 -82.03230469 188.60918945 -82.04492188 187.7512207 C-82.04685547 186.95458008 -82.04878906 186.15793945 -82.05078125 185.3371582 C-82.05489014 184.60625977 -82.05899902 183.87536133 -82.06323242 183.12231445 C-81.8203125 181.2746582 -81.8203125 181.2746582 -79.8203125 179.2746582 C-77.02294922 179.04760742 -77.02294922 179.04760742 -73.5 179.0793457 C-72.36804199 179.08434082 -71.23608398 179.08933594 -70.06982422 179.09448242 C-68.62623535 179.11269043 -67.18264648 179.13089844 -65.6953125 179.1496582 C-61.1165625 179.1909082 -56.5378125 179.2321582 -51.8203125 179.2746582 C-52.1503125 166.0746582 -52.4803125 152.8746582 -52.8203125 139.2746582 C-61.2353125 138.7796582 -61.2353125 138.7796582 -69.8203125 138.2746582 C-70.1503125 133.6546582 -70.4803125 129.0346582 -70.8203125 124.2746582 C-74.1203125 123.6146582 -77.4203125 122.9546582 -80.8203125 122.2746582 C-81.84165693 119.21062493 -81.95890698 117.08948916 -81.98144531 113.87963867 C-81.99105286 112.77353241 -82.0006604 111.66742615 -82.01055908 110.52780151 C-82.01480896 109.3279361 -82.01905884 108.12807068 -82.0234375 106.8918457 C-82.02913757 105.64903839 -82.03483765 104.40623108 -82.04071045 103.12576294 C-82.050172 100.48443959 -82.05706089 97.84323006 -82.06054688 95.2019043 C-82.06702459 91.2142703 -82.10113021 87.22701464 -82.1328125 83.23950195 C-82.23828941 58.0478199 -80.41671084 36.80786049 -62.5078125 17.5246582 C-44.96440629 0.9712862 -22.71011844 -0.03630677 0 0 Z M-1.8203125 48.2746582 C-2.86146673 49.97068336 -3.87749628 51.68214757 -4.8828125 53.3996582 C-9.11663239 60.15464395 -14.08623337 64.85775848 -21.8203125 67.2746582 C-19.94315045 68.76074483 -18.07356573 70.13240532 -15.984375 71.3059082 C-10.46158722 74.43760395 -7.33936549 78.0531725 -3.8203125 83.2746582 C-2.8266534 84.61272374 -1.82833485 85.94737951 -0.8203125 87.2746582 C-0.43359375 86.68297852 -0.046875 86.09129883 0.3515625 85.48168945 C1.43026103 83.84495134 2.51931376 82.2150027 3.6171875 80.59106445 C4.74551999 78.91831154 5.84641743 77.22693975 6.9296875 75.5246582 C10.41298499 72.04136071 14.72179145 70.27390548 19.1796875 68.2746582 C17.1995658 66.29453651 15.87486784 65.58893618 13.3671875 64.4621582 C6.04263839 60.83954727 2.79540149 55.33684 -0.8203125 48.2746582 C-1.1503125 48.2746582 -1.4803125 48.2746582 -1.8203125 48.2746582 Z M40.1796875 71.2746582 C40.08699751 72.62560802 40.06221424 73.98132911 40.06616211 75.33544922 C40.06627541 76.62667442 40.06627541 76.62667442 40.06639099 77.94398499 C40.07155228 78.87939621 40.07671356 79.81480743 40.08203125 80.77856445 C40.08415367 82.20808693 40.08415367 82.20808693 40.08631897 83.66648865 C40.09193598 86.72340986 40.10449134 89.78025897 40.1171875 92.8371582 C40.12220031 94.90421444 40.12676359 96.97127182 40.13085938 99.03833008 C40.14106192 104.11715653 40.16063394 109.19582626 40.1796875 114.2746582 C30.9396875 114.2746582 21.6996875 114.2746582 12.1796875 114.2746582 C11.18513634 118.25286282 11.05043666 121.43790525 11.046875 125.5246582 C11.04591827 126.21978516 11.04496155 126.91491211 11.04397583 127.63110352 C11.04329706 129.09692475 11.0451302 130.56274904 11.04931641 132.02856445 C11.05466898 134.26691465 11.04936121 136.50506421 11.04296875 138.7434082 C11.04362959 140.17049198 11.04491086 141.59757563 11.046875 143.0246582 C11.04800293 144.31887695 11.04913086 145.6130957 11.05029297 146.9465332 C11.07175132 150.42279122 11.07175132 150.42279122 12.1796875 154.2746582 C25.5446875 154.7696582 25.5446875 154.7696582 39.1796875 155.2746582 C39.84916649 163.97788504 40.30821059 172.39476544 40.2421875 181.08325195 C40.23840088 182.25243668 40.23461426 183.4216214 40.23071289 184.62623596 C40.21457136 189.56223067 40.18637676 194.49813788 40.15917969 199.43408203 C39.47943651 224.17938859 39.47943651 224.17938859 44.1796875 248.2746582 C44.45683594 249.12801758 44.73398438 249.98137695 45.01953125 250.8605957 C49.14085425 262.35784871 57.46934941 271.51516275 68.3046875 277.0871582 C86.61147285 285.61169184 110.29943596 284.34089909 129.0546875 277.6496582 C131.99307082 276.5820903 131.99307082 276.5820903 133.1796875 275.2746582 C132.99714596 267.47674063 131.50660368 259.7412212 130.1171875 252.0871582 C129.93091797 251.03979492 129.74464844 249.99243164 129.55273438 248.91333008 C129.09916088 246.36634048 128.64142982 243.82017721 128.1796875 241.2746582 C124.68499097 240.50554398 122.44419146 240.22124525 118.9921875 241.2121582 C111.31177102 243.05902452 104.36568811 243.25179125 97.16015625 239.6809082 C92.64742106 236.47659919 90.23792876 231.61207112 89.1796875 226.2746582 C89.06402811 223.95263607 89.00321816 221.6277003 88.97436523 219.30297852 C88.96446564 218.6098909 88.95456604 217.91680328 88.94436646 217.20271301 C88.91286331 214.91943743 88.88803848 212.63614106 88.86328125 210.3527832 C88.84270205 208.7666572 88.82170532 207.18053657 88.80030823 205.59442139 C88.74518729 201.42535759 88.69573413 197.25624512 88.64746094 193.08709717 C88.59717294 188.83056317 88.54152501 184.57409962 88.48632812 180.31762695 C88.37886863 171.97003031 88.2773967 163.62237464 88.1796875 155.2746582 C89.98155518 155.28251343 89.98155518 155.28251343 91.81982422 155.29052734 C96.26643126 155.30859473 100.71303503 155.32009661 105.15966797 155.32958984 C107.08610581 155.33462607 109.01253981 155.34145532 110.93896484 155.35009766 C113.70411118 155.36219428 116.46920708 155.36789353 119.234375 155.37231445 C120.0990036 155.37747574 120.9636322 155.38263702 121.85446167 155.38795471 C126.15219752 155.51849709 126.15219752 155.51849709 130.1796875 154.2746582 C131.40330842 150.60379544 131.32290021 147.21741371 131.3125 143.39575195 C131.31393509 142.24394188 131.31393509 142.24394188 131.31539917 141.06886292 C131.31607909 139.44743772 131.31423793 137.82600979 131.31005859 136.20458984 C131.30470034 133.71811847 131.31001367 131.23182713 131.31640625 128.74536133 C131.31574558 127.17049114 131.31446464 125.59562106 131.3125 124.02075195 C131.31553635 122.90197914 131.31553635 122.90197914 131.31863403 121.76060486 C131.37323729 117.89018745 131.37323729 117.89018745 130.1796875 114.2746582 C116.3196875 114.2746582 102.4596875 114.2746582 88.1796875 114.2746582 C88.1796875 109.6546582 88.1796875 105.0346582 88.1796875 100.2746582 C88.08815195 95.16838729 87.91693006 90.06620576 87.7421875 84.9621582 C87.70287109 83.65053711 87.66355469 82.33891602 87.62304688 80.98754883 C87.58115234 79.74553711 87.53925781 78.50352539 87.49609375 77.22387695 C87.45943604 76.10327881 87.42277832 74.98268066 87.38500977 73.828125 C87.46269607 71.34161448 87.46269607 71.34161448 86.1796875 70.2746582 C84.7729353 70.1766097 83.36133614 70.14667634 81.95117188 70.14526367 C81.05354126 70.14211151 80.15591064 70.13895935 79.2310791 70.13571167 C77.76704651 70.13874802 77.76704651 70.13874802 76.2734375 70.1418457 C75.2784021 70.14088898 74.2833667 70.13993225 73.25817871 70.13894653 C71.14982032 70.1382646 69.04145985 70.14011977 66.93310547 70.14428711 C63.69363723 70.14963517 60.45430765 70.14434253 57.21484375 70.13793945 C55.17187469 70.13860023 53.12890572 70.13988139 51.0859375 70.1418457 C49.62190491 70.13880936 49.62190491 70.13880936 48.1282959 70.13571167 C46.78184998 70.14043991 46.78184998 70.14043991 45.40820312 70.14526367 C44.61401978 70.14605927 43.81983643 70.14685486 43.00158691 70.14767456 C41.15978947 70.07581274 41.15978947 70.07581274 40.1796875 71.2746582 Z M-65.8203125 82.2746582 C-65.8203125 87.2246582 -65.8203125 92.1746582 -65.8203125 97.2746582 C-62.87644627 98.74659132 -60.44641214 98.12401994 -57.1953125 97.8371582 C-55.0915625 97.6515332 -52.9878125 97.4659082 -50.8203125 97.2746582 C-50.8203125 92.3246582 -50.8203125 87.3746582 -50.8203125 82.2746582 C-53.9759375 81.9962207 -53.9759375 81.9962207 -57.1953125 81.7121582 C-58.37867188 81.60774414 -59.56203125 81.50333008 -60.78125 81.39575195 C-63.73929881 81.03312225 -63.73929881 81.03312225 -65.8203125 82.2746582 Z M-43.8203125 114.2746582 C-45.0466882 116.72740961 -44.93446564 118.32523631 -44.91796875 121.0637207 C-44.91474609 122.00473633 -44.91152344 122.94575195 -44.90820312 123.9152832 C-44.89982422 124.90012695 -44.89144531 125.8849707 -44.8828125 126.8996582 C-44.87830078 127.89223633 -44.87378906 128.88481445 -44.86914062 129.9074707 C-44.85733395 132.3632598 -44.8408665 134.81892924 -44.8203125 137.2746582 C-40.22743368 139.59401617 -36.14970182 139.54300714 -31.1328125 139.4621582 C-30.36130859 139.46151367 -29.58980469 139.46086914 -28.79492188 139.46020508 C-24.67491197 139.51708899 -24.67491197 139.51708899 -20.8203125 138.2746582 C-19.35029591 130.48357027 -18.89328886 121.98275278 -20.8203125 114.2746582 C-28.4103125 114.2746582 -36.0003125 114.2746582 -43.8203125 114.2746582 Z M-30.8203125 159.2746582 C-30.90718746 162.39948382 -30.96065818 165.52400066 -31.0078125 168.6496582 C-31.03294922 169.53911133 -31.05808594 170.42856445 -31.08398438 171.3449707 C-31.09365234 172.19575195 -31.10332031 173.0465332 -31.11328125 173.9230957 C-31.1289917 174.70861816 -31.14470215 175.49414062 -31.16088867 176.3034668 C-31.04849854 176.95395996 -30.9361084 177.60445312 -30.8203125 178.2746582 C-27.18789481 180.69626999 -24.51036234 180.53797815 -20.3203125 180.4621582 C-19.64355469 180.46151367 -18.96679688 180.46086914 -18.26953125 180.46020508 C-15.19025647 180.43287424 -12.76128776 180.25498329 -9.8203125 179.2746582 C-9.79143104 175.96217634 -9.77355451 172.64972653 -9.7578125 169.3371582 C-9.74943359 168.39163086 -9.74105469 167.44610352 -9.73242188 166.47192383 C-9.72919922 165.57280273 -9.72597656 164.67368164 -9.72265625 163.74731445 C-9.71741943 162.91466064 -9.71218262 162.08200684 -9.70678711 161.22412109 C-9.60387958 159.26949022 -9.60387958 159.26949022 -10.8203125 158.2746582 C-13.80897892 158.17454524 -16.76941703 158.13591845 -19.7578125 158.1496582 C-20.59505859 158.14579102 -21.43230469 158.14192383 -22.29492188 158.13793945 C-23.49665039 158.13987305 -23.49665039 158.13987305 -24.72265625 158.1418457 C-25.82855103 158.1435376 -25.82855103 158.1435376 -26.95678711 158.14526367 C-28.91362851 158.16123966 -28.91362851 158.16123966 -30.8203125 159.2746582 Z M-29.8203125 199.2746582 C-30.01687474 201.48220337 -30.20216709 203.69075359 -30.3828125 205.8996582 C-30.48722656 207.12942383 -30.59164062 208.35918945 -30.69921875 209.6262207 C-30.81222311 213.03093282 -30.51076813 215.95024218 -29.8203125 219.2746582 C-26.84108657 219.30149808 -23.86209955 219.32141857 -20.8828125 219.3371582 C-20.03267578 219.34553711 -19.18253906 219.35391602 -18.30664062 219.36254883 C-17.49775391 219.36577148 -16.68886719 219.36899414 -15.85546875 219.37231445 C-15.106604 219.37755127 -14.35773926 219.38278809 -13.58618164 219.38818359 C-11.79363511 219.46807573 -11.79363511 219.46807573 -10.8203125 218.2746582 C-10.7219404 216.94422195 -10.68952658 215.60872476 -10.6875 214.2746582 C-10.68621094 213.4702832 -10.68492187 212.6659082 -10.68359375 211.8371582 C-10.68939453 210.5687207 -10.68939453 210.5687207 -10.6953125 209.2746582 C-10.69144531 208.4290332 -10.68757813 207.5834082 -10.68359375 206.7121582 C-10.68552734 205.5055957 -10.68552734 205.5055957 -10.6875 204.2746582 C-10.68862793 203.5321582 -10.68975586 202.7896582 -10.69091797 202.0246582 C-10.63089034 200.24640009 -10.63089034 200.24640009 -11.8203125 199.2746582 C-13.16298663 199.18833946 -14.51005572 199.16759347 -15.85546875 199.17700195 C-16.66435547 199.18022461 -17.47324219 199.18344727 -18.30664062 199.18676758 C-19.15677734 199.19514648 -20.00691406 199.20352539 -20.8828125 199.2121582 C-21.73681641 199.21666992 -22.59082031 199.22118164 -23.47070312 199.22583008 C-25.58726913 199.23765447 -27.70379935 199.25559052 -29.8203125 199.2746582 Z M-7.8203125 233.2746582 C-9.00839243 235.65081807 -8.94945772 237.12583241 -8.953125 239.7746582 C-8.95441406 240.6615332 -8.95570313 241.5484082 -8.95703125 242.4621582 C-8.95316406 243.3902832 -8.94929688 244.3184082 -8.9453125 245.2746582 C-8.94917969 246.2027832 -8.95304687 247.1309082 -8.95703125 248.0871582 C-8.95574219 248.9740332 -8.95445312 249.8609082 -8.953125 250.7746582 C-8.95199707 251.5893457 -8.95086914 252.4040332 -8.94970703 253.2434082 C-8.94832753 255.34316772 -8.94832753 255.34316772 -7.8203125 257.2746582 C-0.2303125 257.2746582 7.3596875 257.2746582 15.1796875 257.2746582 C16.10951009 254.48519044 16.30826369 252.77855813 16.3125 249.89575195 C16.31378906 249.0572168 16.31507813 248.21868164 16.31640625 247.35473633 C16.31060547 246.04666016 16.31060547 246.04666016 16.3046875 244.7121582 C16.30855469 243.83624023 16.31242187 242.96032227 16.31640625 242.05786133 C16.31447266 240.80199219 16.31447266 240.80199219 16.3125 239.52075195 C16.31137207 238.75432373 16.31024414 237.98789551 16.30908203 237.19824219 C16.29837444 235.19021952 16.29837444 235.19021952 15.1796875 233.2746582 C7.52066368 231.71159212 -0.15974422 231.93069886 -7.8203125 233.2746582 Z M-54.8203125 242.2746582 C-54.92006282 244.78601925 -54.95913433 247.26369235 -54.9453125 249.7746582 C-54.94917969 250.47719727 -54.95304687 251.17973633 -54.95703125 251.90356445 C-55.26422181 255.37894629 -55.26422181 255.37894629 -53.8203125 258.2746582 C-51.28981848 258.34779387 -48.78726413 258.36713347 -46.2578125 258.3371582 C-45.54689453 258.33264648 -44.83597656 258.32813477 -44.10351562 258.32348633 C-42.34241237 258.31166684 -40.58135214 258.29373083 -38.8203125 258.2746582 C-38.79346571 255.62875806 -38.77354893 252.98312725 -38.7578125 250.3371582 C-38.74943359 249.58241211 -38.74105469 248.82766602 -38.73242188 248.05004883 C-38.72378809 246.12471507 -38.76806917 244.19930239 -38.8203125 242.2746582 C-39.95344006 240.91604928 -39.95344006 240.91604928 -42.9453125 241.1418457 C-44.2240625 241.14442383 -45.5028125 241.14700195 -46.8203125 241.1496582 C-48.0990625 241.14708008 -49.3778125 241.14450195 -50.6953125 241.1418457 C-53.68718494 240.91604928 -53.68718494 240.91604928 -54.8203125 242.2746582 Z " fill="#DB4C3F" transform="translate(177.8203125,14.725341796875)"/>
<path d="M0 0 C0.99870117 0.31348389 0.99870117 0.31348389 2.01757812 0.63330078 C15.66159974 5.08461282 28.91546752 12.80339336 36.421875 25.3828125 C44.01154012 40.3389173 43.45282226 57.21992891 43.4765625 73.5390625 C43.49091929 75.79520574 43.50668441 78.0513404 43.52377319 80.3074646 C43.56534328 86.21387007 43.59050695 92.12022245 43.61126709 98.0267334 C43.64724725 107.45417373 43.70900708 116.88148143 43.76975632 126.3087883 C43.78846182 129.5596695 43.80046609 132.81051582 43.81118774 136.06143188 C43.85383326 146.00165088 43.99318315 155.93169057 44.38818359 165.86474609 C44.41823801 166.73243937 44.44829243 167.60013264 44.47925758 168.49411964 C44.82735758 176.19333935 46.28395832 183.54760163 48.0625 191.03125 C48.21847656 191.71703125 48.37445312 192.4028125 48.53515625 193.109375 C48.94384739 194.77161461 49.46372902 196.40567859 50 198.03125 C50 202.13650139 48.41153443 204.09696402 45.9262085 207.2701416 C42.46125381 210.38189247 38.90187546 209.99377089 34.4453125 209.78125 C33.54376434 209.76993042 32.64221619 209.75861084 31.71334839 209.74694824 C28.84835564 209.70234531 25.98846556 209.602026 23.125 209.5 C21.17715589 209.45985162 19.22923291 209.42335321 17.28125 209.390625 C12.5188828 209.30266394 7.76030475 209.16473835 3 209 C2.32451422 206.94037148 1.65995688 204.87715678 1 202.8125 C0.62875 201.66394531 0.2575 200.51539063 -0.125 199.33203125 C-0.90630553 196.35679188 -1.18363306 194.04716104 -1 191 C-1.8971875 191.70125 -2.794375 192.4025 -3.71875 193.125 C-19.19967503 204.99384911 -36.05805186 214.1426826 -56 215 C-56.76183594 215.03996094 -57.52367187 215.07992187 -58.30859375 215.12109375 C-78.06975782 215.65859741 -95.52019785 208.93644476 -109.9375 195.5625 C-123.28983035 181.18560965 -124.87782542 163.68252934 -124.21337891 145.04248047 C-123.30156303 132.04127975 -116.56788088 120.45956501 -107.39453125 111.4375 C-104.68617119 109.12386485 -101.92305381 107.03447762 -99 105 C-97.73349609 104.11441406 -97.73349609 104.11441406 -96.44140625 103.2109375 C-72.38685855 87.91936726 -31.90626841 75 -3 75 C-2.72739133 57.50579986 -2.72739133 57.50579986 -10.12109375 42.5 C-19.44015645 35.06024932 -32.81379706 34.43417977 -44.1875 35.5625 C-54.27112675 36.78870261 -62.09997519 39.67589549 -68.6875 47.7578125 C-70.52048112 50.88915526 -70.93365564 53.8164699 -71.125 57.41015625 C-72.6637903 61.96470074 -74.73728082 64.67177257 -79 67 C-84.20740215 67.91109652 -89.24890332 68.00811526 -94.52441406 67.91259766 C-96.99589394 67.87506236 -99.45848106 67.91228796 -101.9296875 67.95703125 C-115.05119761 67.99695319 -115.05119761 67.99695319 -119.5859375 63.6796875 C-121.96446907 60.71510619 -122.80854426 58.11423388 -122.42578125 54.2265625 C-119.08151686 36.73820744 -110.29229976 22.80525391 -96 12 C-88.18035309 6.73191158 -79.98785384 2.82391941 -71 0 C-70.06148193 -0.29632324 -70.06148193 -0.29632324 -69.10400391 -0.59863281 C-48.02492601 -6.91666891 -20.93890991 -6.71712818 0 0 Z M-20.5 117.5 C-21.14705902 117.67818268 -21.79411804 117.85636536 -22.46078491 118.03994751 C-30.88992367 120.37712432 -39.18326943 122.93580777 -47.3125 126.1875 C-48.47265625 126.64962891 -48.47265625 126.64962891 -49.65625 127.12109375 C-59.8592473 131.38287669 -68.87981762 136.91717932 -74 147 C-75.70913683 152.54663274 -75.81627466 157.81850269 -73.4375 163.125 C-69.77700965 169.63964891 -64.52973984 173.51133381 -57.37109375 175.52734375 C-46.52703029 177.68901044 -36.02155558 174.83933087 -26.81201172 168.90673828 C-14.52067859 160.47890379 -6.97395414 149.81997675 -4.125 135.0625 C-2.89010228 128.04254901 -2.67069422 121.12276215 -3 114 C-9.09657837 114 -14.64762062 115.88615193 -20.5 117.5 Z " fill="#DB4C3F" transform="translate(756,120)"/>
<path d="M0 0 C20.71984183 18.04359643 28.9823203 40.37893881 31.5546875 67.3359375 C31.70325061 69.7304252 31.82374073 72.12668602 31.9296875 74.5234375 C31.97432129 75.42223633 32.01895508 76.32103516 32.06494141 77.24707031 C32.20226939 80.31822342 32.28966519 83.38773171 32.3671875 86.4609375 C32.43703857 87.95427612 32.43703857 87.95427612 32.50830078 89.4777832 C32.52231934 90.42999756 32.53633789 91.38221191 32.55078125 92.36328125 C32.5758374 93.21269287 32.60089355 94.06210449 32.62670898 94.93725586 C31.54557456 98.94862432 29.39457861 101.38443894 25.9296875 103.5234375 C21.69495186 104.3938212 17.53275118 104.28184369 13.22314453 104.20458984 C11.94455063 104.205466 10.66595673 104.20634216 9.34861755 104.20724487 C5.85477203 104.20896187 2.36217002 104.17376312 -1.13138723 104.13180113 C-4.78683713 104.09421592 -8.4423176 104.09076269 -12.09793091 104.08364868 C-19.01474356 104.06502246 -25.93098516 104.01581642 -32.8475467 103.95555174 C-40.72411775 103.88841664 -48.60071651 103.85548015 -56.47750258 103.82537913 C-72.67543983 103.76271468 -88.87280322 103.65722395 -105.0703125 103.5234375 C-104.62409799 106.22526256 -104.16982959 108.92532395 -103.7109375 111.625 C-103.5867041 112.38240479 -103.4624707 113.13980957 -103.33447266 113.92016602 C-100.79474341 128.71928013 -93.38384372 142.64718101 -81.0703125 151.5234375 C-77.84273921 153.52693924 -74.59169509 155.10413215 -71.0703125 156.5234375 C-70.29816406 156.843125 -69.52601562 157.1628125 -68.73046875 157.4921875 C-55.8824522 161.87634481 -38.34502904 161.51290762 -26.0703125 155.5234375 C-22.78462539 153.2191894 -20.5637709 151.30397149 -18.8828125 147.6484375 C-18.55796875 146.95363281 -18.233125 146.25882813 -17.8984375 145.54296875 C-16.96286831 143.3600939 -16.96286831 143.3600939 -16.1328125 140.3359375 C-14.7427251 136.65629437 -13.1234401 135.00707775 -10.0703125 132.5234375 C-7.3029199 131.9984374 -5.15370213 131.77378871 -2.390625 131.7890625 C-1.29414139 131.77477203 -1.29414139 131.77477203 -0.17550659 131.76019287 C1.36585815 131.74806731 2.90737193 131.74882844 4.44873047 131.76171875 C6.7927177 131.77337796 9.12945897 131.72120164 11.47265625 131.6640625 C23.96045904 131.55021354 23.96045904 131.55021354 28.484375 135.71484375 C30.28749004 138.07839454 30.91816748 139.47152716 31.5703125 142.41015625 C29.32719737 158.49329173 21.47021469 173.09773295 8.9296875 183.5234375 C-7.12397497 195.5487646 -26.01964852 201.83410227 -46.0703125 202.5234375 C-47.04613281 202.56339844 -48.02195312 202.60335937 -49.02734375 202.64453125 C-76.54776837 203.22140821 -102.35301351 195.5123247 -122.6328125 176.3984375 C-143.99200791 154.04756516 -152.52438695 124.7119448 -152.3828125 94.2734375 C-152.37789795 93.00927002 -152.3729834 91.74510254 -152.36791992 90.44262695 C-152.24460917 80.54425196 -151.46929156 71.13115976 -149.0703125 61.5234375 C-148.90402344 60.85103027 -148.73773437 60.17862305 -148.56640625 59.48583984 C-142.01345424 34.08101572 -126.71027756 10.24318806 -104.1105957 -3.62670898 C-73.47497053 -21.62110777 -28.72543505 -23.17038908 0 0 Z M-89.671875 40.5390625 C-95.67692261 48.01114129 -99.44543352 56.33636105 -102.0703125 65.5234375 C-73.0303125 65.5234375 -43.9903125 65.5234375 -14.0703125 65.5234375 C-15.51825292 52.49197373 -19.06368164 41.49374911 -29.2734375 32.60546875 C-49.30267957 18.42392498 -73.38633549 23.58566175 -89.671875 40.5390625 Z " fill="#DB4C3F" transform="translate(1561.0703125,132.4765625)"/>
<path d="M0 0 C6.30001804 5.4135401 10.86426969 11.35035646 14.796875 18.64453125 C15.19519531 19.38316406 15.59351563 20.12179688 16.00390625 20.8828125 C22.50947286 34.21069616 22.94022108 49.17050049 23.00561523 63.69799805 C23.01517256 65.09844179 23.02506449 66.49888329 23.03526306 67.89932251 C23.06639329 72.46410399 23.08686714 77.02890243 23.10546875 81.59375 C23.10876607 82.3725314 23.11206339 83.15131279 23.11546063 83.95369363 C23.14619836 91.30494406 23.17288138 98.65619903 23.18987942 106.00749493 C23.21182862 115.38586609 23.25395227 124.76366829 23.32331699 134.14181203 C23.37054843 140.75264503 23.39481055 147.36332427 23.4020763 153.97432071 C23.40702799 157.91723064 23.42206538 161.85949573 23.4618206 165.8022213 C23.49869313 169.50680862 23.50709571 173.21038264 23.49381447 176.91511917 C23.49389404 178.91785476 23.52372997 180.92052028 23.55450439 182.92301941 C23.47512933 192.73699336 23.47512933 192.73699336 19.98500061 196.4500885 C16.22961877 199.03498366 13.40852082 199.51884036 8.984375 199.44140625 C8.2524292 199.44714661 7.5204834 199.45288696 6.76635742 199.45880127 C5.22669357 199.46286425 3.68692434 199.45193143 2.14746094 199.42675781 C-0.19832933 199.394597 -2.53723435 199.42648838 -4.8828125 199.46484375 C-6.38543174 199.46087853 -7.88804673 199.45319037 -9.390625 199.44140625 C-10.08454346 199.45355164 -10.77846191 199.46569702 -11.4934082 199.47821045 C-15.38387166 199.3668748 -17.24402865 198.614332 -20.38848877 196.29277039 C-24.48807641 191.94106803 -24.02806653 187.19545224 -23.94433594 181.49633789 C-23.95546165 179.82405876 -23.95546165 179.82405876 -23.96681213 178.11799622 C-23.98472053 174.42972228 -23.96082989 170.74291154 -23.9375 167.0546875 C-23.94367932 164.47276476 -23.95277937 161.8908475 -23.96466064 159.3089447 C-23.986903 153.19170312 -23.9840063 147.07497873 -23.96753812 140.95773357 C-23.93743286 129.42196601 -23.96439219 117.88629491 -23.99481964 106.35055351 C-23.99986052 102.59607545 -23.99017206 98.84187412 -23.97796631 95.0874176 C-23.9639726 84.0428685 -24.12400973 73.04528732 -24.96582031 62.02905273 C-25.02675243 61.12279931 -25.08768456 60.21654589 -25.1504631 59.28283024 C-25.86929722 51.18624092 -27.848702 43.60069379 -33.765625 37.76953125 C-42.21068349 31.17864612 -51.68829442 29.39766259 -62.203125 30.64453125 C-73.5622087 33.24573063 -84.66194833 39.89566218 -91.203125 49.64453125 C-99.3840051 63.75654942 -102.37332475 77.34211754 -102.31323242 93.55517578 C-102.31377468 95.75953167 -102.31436164 97.96388754 -102.31498718 100.16824341 C-102.31284493 101.90583609 -102.31284493 101.90583609 -102.31065941 103.67853165 C-102.30712408 109.83781493 -102.33294259 115.9970086 -102.35351562 122.15625 C-102.37787723 129.98233751 -102.39349913 137.8081571 -102.37817383 145.63427734 C-102.36652757 151.97202433 -102.38386044 158.30911139 -102.42061806 164.64675522 C-102.42923891 167.05886288 -102.42714499 169.47103362 -102.414114 171.88312149 C-102.3972554 175.25371137 -102.41737807 178.6222088 -102.44604492 181.99267578 C-102.43225296 182.987117 -102.418461 183.98155823 -102.4042511 185.00613403 C-102.48184289 189.70867921 -102.70651515 192.74818715 -106.01301575 196.26174927 C-109.8210941 199.10610969 -112.64283542 199.51931436 -117.234375 199.44140625 C-118.36558777 199.45001678 -118.36558777 199.45001678 -119.51965332 199.45880127 C-121.10639468 199.46286521 -122.6932382 199.45192573 -124.27978516 199.42675781 C-126.69793321 199.39460029 -129.10940159 199.42648713 -131.52734375 199.46484375 C-133.07553547 199.46087855 -134.62372305 199.45319043 -136.171875 199.44140625 C-136.88766724 199.45355164 -137.60345947 199.46569702 -138.34094238 199.47821045 C-142.20403313 199.37090872 -144.62023285 198.7038676 -147.39251232 196.10084438 C-150.70512268 192.58699986 -151.05276213 189.26394718 -150.97175598 184.56715393 C-150.98685425 183.37243348 -150.98685425 183.37243348 -151.00225753 182.15357727 C-151.02846605 179.49308304 -151.01193829 176.83461807 -150.99536133 174.17407227 C-151.00513191 172.2633728 -151.01743865 170.35268488 -151.03208923 168.4420166 C-151.06370397 163.25796711 -151.05722612 158.07461439 -151.04200959 152.89051557 C-151.03285836 148.56138736 -151.04256175 144.23238675 -151.05234832 139.90326637 C-151.07525687 129.68986774 -151.06767755 119.47680671 -151.0402832 109.26342773 C-151.01247891 98.72945222 -151.03183665 88.19632674 -151.07515889 77.66242272 C-151.11093636 68.61506629 -151.11948499 59.5679719 -151.10576648 50.52055496 C-151.09772163 45.11834569 -151.09951057 39.71661255 -151.12662697 34.31445503 C-151.15077039 29.23415034 -151.14078217 24.15502859 -151.10463905 19.07480621 C-151.09699062 17.21202273 -151.10122846 15.34914624 -151.11831284 13.4864254 C-151.25150526 -2.34330021 -151.25150526 -2.34330021 -146.87956238 -6.96134949 C-143.29950953 -9.78040839 -140.10546695 -10.25749763 -135.546875 -10.28515625 C-134.84091187 -10.29185333 -134.13494873 -10.29855042 -133.40759277 -10.30545044 C-131.92516677 -10.31018263 -130.44259089 -10.29748296 -128.96044922 -10.26806641 C-126.70596151 -10.23051599 -124.46121984 -10.26776038 -122.20703125 -10.3125 C-110.25088455 -10.35457193 -110.25088455 -10.35457193 -105.73046875 -6.140625 C-103.42719977 -3.17549712 -102.31792946 -0.73619467 -102.265625 3.08203125 C-102.23597656 3.94699219 -102.20632813 4.81195313 -102.17578125 5.703125 C-102.18480469 6.34378906 -102.19382812 6.98445313 -102.203125 7.64453125 C-101.57148437 7.08765625 -100.93984375 6.53078125 -100.2890625 5.95703125 C-71.89392347 -18.26475882 -30.91936122 -22.73704245 0 0 Z " fill="#DB4C3F" transform="translate(1786.203125,130.35546875)"/>
<path d="M0 0 C0.1737205 4.73207005 0.30037162 9.46226568 0.38452148 14.19677734 C0.4196133 15.8051793 0.46730247 17.41335968 0.52807617 19.02099609 C1.08331712 34.09182186 1.08331712 34.09182186 -2.57421875 38.078125 C-8.32209536 41.61360314 -15.765503 40.46116557 -22.25 40.125 C-33.28301172 39.60459959 -42.23407485 40.05321033 -52 45.75 C-56.74350862 51.0864472 -57.52503046 58.08490673 -58.125 64.9375 C-58.2734375 66.44661458 -58.421875 67.95572917 -58.5703125 69.46484375 C-58.62977051 70.120896 -58.68922852 70.77694824 -58.75048828 71.45288086 C-59.12795328 75.30620017 -59.56696073 79.15258273 -60 83 C-59.37439178 82.98667633 -58.74878357 82.97335266 -58.10421753 82.95962524 C-51.5830342 82.82671195 -45.06223657 82.73631757 -38.54003906 82.67041016 C-36.10726285 82.64026785 -33.67459504 82.59934618 -31.2421875 82.54736328 C-27.74191529 82.47444094 -24.24308164 82.44051667 -20.7421875 82.4140625 C-19.11529495 82.36761093 -19.11529495 82.36761093 -17.45553589 82.32022095 C-9.00582312 82.31646897 -9.00582312 82.31646897 -5.31811523 85.61889648 C-1.12668591 90.78824324 -2.09673178 97.11815359 -2.1875 103.4375 C-2.14012695 105.38366211 -2.14012695 105.38366211 -2.09179688 107.36914062 C-2.09630859 108.62791016 -2.10082031 109.88667969 -2.10546875 111.18359375 C-2.10776489 112.89373657 -2.10776489 112.89373657 -2.11010742 114.63842773 C-3.39124421 119.47792635 -5.83343708 122.24072266 -10 125 C-13.89656697 125.93124821 -17.63334132 125.81982574 -21.62109375 125.68359375 C-22.72099136 125.67368912 -23.82088898 125.66378448 -24.95411682 125.65357971 C-28.44996285 125.61455009 -31.94261118 125.52674246 -35.4375 125.4375 C-37.81440762 125.40237169 -40.1913647 125.37043537 -42.56835938 125.34179688 C-48.37998806 125.26482594 -54.18976557 125.14785055 -60 125 C-59.99446924 125.81906641 -59.98893848 126.63813282 -59.98324013 127.48201942 C-59.85072992 147.41237415 -59.75144379 167.34265295 -59.68912697 187.27335548 C-59.65818987 196.91172735 -59.61601221 206.54980516 -59.54736328 216.18798828 C-59.48755671 224.58872625 -59.44884979 232.98925126 -59.43546903 241.3901962 C-59.42764732 245.83848964 -59.40926817 250.28617385 -59.36561966 254.734272 C-59.32485838 258.92211563 -59.31233778 263.1090998 -59.32135391 267.29712296 C-59.31970481 268.83302992 -59.30778981 270.36896595 -59.28476715 271.90470123 C-59.09871592 284.9568235 -59.09871592 284.9568235 -62.81088257 288.91201782 C-66.56914724 291.37263266 -69.44288091 291.87335475 -73.8125 291.796875 C-74.9104187 291.80548553 -74.9104187 291.80548553 -76.03051758 291.81427002 C-77.57018143 291.818333 -79.10995066 291.80740018 -80.64941406 291.78222656 C-82.99520433 291.75006575 -85.33410935 291.78195713 -87.6796875 291.8203125 C-89.18230674 291.81634728 -90.68492173 291.80865912 -92.1875 291.796875 C-92.88141846 291.80902039 -93.57533691 291.82116577 -94.2902832 291.8336792 C-98.00438431 291.72739062 -100.0794264 290.94799786 -103.18911743 288.91201782 C-108.00953499 283.77601776 -106.77987016 276.21635855 -106.68115234 269.63134766 C-106.67945888 268.05412867 -106.68041188 266.47690496 -106.68380737 264.89968872 C-106.68552668 260.62703669 -106.65028821 256.35539833 -106.60836363 252.08298159 C-106.57081825 247.61473024 -106.56732828 243.14645482 -106.56021118 238.67807007 C-106.54157346 230.22071312 -106.49235116 221.76382235 -106.43211424 213.30667055 C-106.36501554 203.67679268 -106.33205168 194.04689238 -106.30194163 184.41683888 C-106.23925104 164.61096588 -106.13373701 144.80551233 -106 125 C-106.6297876 125.03665771 -107.2595752 125.07331543 -107.90844727 125.11108398 C-110.7926237 125.25758436 -113.67601729 125.34792581 -116.5625 125.4375 C-117.55314453 125.49615234 -118.54378906 125.55480469 -119.56445312 125.61523438 C-126.80718895 125.78367009 -126.80718895 125.78367009 -130.24501228 123.52503967 C-133.19851801 120.67065262 -134.79179939 118.74795087 -135.90576172 114.74609375 C-135.91365723 113.65425781 -135.92155273 112.56242187 -135.9296875 111.4375 C-135.93871094 110.22835937 -135.94773437 109.01921875 -135.95703125 107.7734375 C-135.92996094 106.52820313 -135.90289063 105.28296875 -135.875 104 C-135.90207031 102.75476563 -135.92914062 101.50953125 -135.95703125 100.2265625 C-135.91550093 94.66149951 -135.85264172 90.04519528 -132.16015625 85.65234375 C-127.43262774 81.81122683 -122.38366934 82.21785042 -116.5625 82.5625 C-115.54478516 82.59408203 -114.52707031 82.62566406 -113.47851562 82.65820312 C-110.98264184 82.74022715 -108.4928683 82.85489893 -106 83 C-106.05220703 81.25589844 -106.05220703 81.25589844 -106.10546875 79.4765625 C-106.54924002 58.20467781 -103.80413206 37.05030923 -90 20 C-89.38125 19.17757812 -88.7625 18.35515625 -88.125 17.5078125 C-66.3899976 -8.14268666 -29.62667526 -4.62993761 0 0 Z " fill="#DB4C3F" transform="translate(1219,38)"/>
<path d="M0 0 C0.73053085 -0.00432541 1.46106171 -0.00865082 2.21372986 -0.0131073 C3.74747607 -0.01348637 5.28131582 0.00341493 6.81469727 0.03686523 C9.15186913 0.08202208 11.48111108 0.05756924 13.81835938 0.02539062 C15.31643477 0.03360987 16.81449465 0.04584389 18.3125 0.0625 C19.0032814 0.05349167 19.69406281 0.04448334 20.40577698 0.03520203 C24.19243074 0.16268307 26.69957851 0.94921579 29.53930664 3.36303711 C33.01591717 7.31897046 32.86148409 11.16938707 32.67578125 16.23046875 C32.66729156 17.10982086 32.65880188 17.98917297 32.65005493 18.89517212 C32.61662152 21.6879022 32.54136571 24.47768275 32.46484375 27.26953125 C32.43473093 29.16922896 32.40735743 31.06897219 32.3828125 32.96875 C32.31686371 37.61180353 32.21341553 42.25266837 32.08984375 46.89453125 C32.70070328 46.87898697 33.31156281 46.86344269 33.94093323 46.84742737 C40.31620534 46.69219839 46.6909383 46.58683734 53.06762695 46.51000977 C55.44512751 46.47487269 57.82247752 46.42715172 60.19946289 46.36645508 C63.62293675 46.28124416 67.04440682 46.24177388 70.46875 46.2109375 C71.52630997 46.1748085 72.58386993 46.1386795 73.67347717 46.10145569 C78.92212038 46.09868205 82.28964962 46.40145412 86.25805664 50.02709961 C89.10313405 53.41023716 89.987101 55.97239045 90.01953125 60.45703125 C90.02855469 61.66617188 90.03757812 62.8753125 90.046875 64.12109375 C90.00626953 65.98894531 90.00626953 65.98894531 89.96484375 67.89453125 C89.99191406 69.13976562 90.01898437 70.385 90.046875 71.66796875 C90.03785156 72.87710938 90.02882813 74.08625 90.01953125 75.33203125 C90.01163574 76.42386719 90.00374023 77.51570313 89.99560547 78.640625 C88.65799447 83.44592943 86.35034503 86.28497422 82.08984375 88.89453125 C78.18815586 89.80802536 74.45810717 89.71441181 70.46875 89.578125 C69.36885239 89.56822037 68.26895477 89.55831573 67.13572693 89.54811096 C63.6398809 89.50908134 60.14723257 89.42127371 56.65234375 89.33203125 C54.27543613 89.29690294 51.89847905 89.26496662 49.52148438 89.23632812 C43.70985569 89.15935719 37.90007818 89.0423818 32.08984375 88.89453125 C32.17492461 100.26649453 32.27005688 111.63832776 32.37737083 123.01010418 C32.42692064 128.29276186 32.47324736 133.5754034 32.51171875 138.8581543 C32.5491022 143.97410646 32.59559057 149.08990809 32.64790726 154.20572853 C32.66617411 156.13931398 32.68137929 158.07293133 32.69318771 160.006567 C32.75688227 170.09367568 33.0349184 180.13464211 33.86572266 190.19067383 C33.92585226 191.03308719 33.98598186 191.87550055 34.04793358 192.74344158 C34.72263778 199.96103276 36.81471919 206.1404331 41.46484375 211.76953125 C49.68632198 218.42501363 58.91251074 218.87180977 69.08984375 217.89453125 C72.87080847 217.20485981 76.58120317 216.27719075 80.27807617 215.22973633 C84.60673832 214.04276969 87.78396599 213.49818826 92.08984375 214.89453125 C94.56425338 216.51851272 96.26727833 217.6491598 98.08984375 219.89453125 C98.63168794 222.82884088 98.80122991 224.91212688 98.67578125 227.8203125 C98.66729156 228.56790329 98.65880188 229.31549408 98.65005493 230.08573914 C98.61660904 232.46100313 98.54136189 234.83280344 98.46484375 237.20703125 C98.43473205 238.82221639 98.40735833 240.43745506 98.3828125 242.05273438 C98.31684876 246.00132364 98.21340134 249.9473414 98.08984375 253.89453125 C68.42771005 260.71744581 41.06031084 265.52016148 13.1328125 249.8046875 C-0.04058325 241.53538003 -8.13942434 229.10445079 -11.84765625 214.1015625 C-15.31086286 197.56535079 -15.0506705 180.80451943 -15.0078125 163.9921875 C-15.00594324 161.81644219 -15.00452174 159.64069645 -15.00352478 157.46495056 C-14.99973959 151.78845012 -14.9899443 146.11197601 -14.9788208 140.43548584 C-14.96851987 134.6230098 -14.96400871 128.81052944 -14.95898438 122.99804688 C-14.94831773 111.63019688 -14.93129042 100.26236627 -14.91015625 88.89453125 C-15.66111572 88.93118896 -16.4120752 88.96784668 -17.18579102 89.00561523 C-20.61432281 89.15183087 -24.04219826 89.24238195 -27.47265625 89.33203125 C-29.24479492 89.42000977 -29.24479492 89.42000977 -31.05273438 89.50976562 C-40.92254744 89.70329137 -40.92254744 89.70329137 -45.1940918 85.79321289 C-48.01171286 82.32434793 -48.79862 79.59713254 -48.8046875 75.078125 C-48.80919922 73.81935547 -48.81371094 72.56058594 -48.81835938 71.26367188 C-48.78677734 69.96623047 -48.75519531 68.66878906 -48.72265625 67.33203125 C-48.74134766 66.03072266 -48.76003906 64.72941406 -48.77929688 63.38867188 C-48.67650133 52.8331929 -48.67650133 52.8331929 -45.7265625 49.015625 C-40.78620068 45.19830685 -33.91987164 46.28046469 -28.03515625 46.51953125 C-26.77445313 46.54660156 -25.51375 46.57367188 -24.21484375 46.6015625 C-21.11152542 46.67209246 -18.01172621 46.77062096 -14.91015625 46.89453125 C-14.96514282 45.17737915 -14.96514282 45.17737915 -15.02124023 43.42553711 C-15.14845987 39.15623666 -15.22848668 34.88710165 -15.29467773 30.61645508 C-15.32976375 28.77241798 -15.37744761 26.92857402 -15.43823242 25.08520508 C-15.52368539 22.42610984 -15.56295969 19.76959819 -15.59375 17.109375 C-15.629879 16.29242661 -15.666008 15.47547821 -15.70323181 14.6337738 C-15.70636402 10.01125603 -14.98644189 7.36461251 -11.86181641 3.87451172 C-8.17568516 0.65105451 -4.83255144 -0.12142941 0 0 Z " fill="#DB4C3F" transform="translate(1281.91015625,74.10546875)"/>
<path d="M0 0 C0.73053085 -0.00432541 1.46106171 -0.00865082 2.21372986 -0.0131073 C3.74747607 -0.01348637 5.28131582 0.00341493 6.81469727 0.03686523 C9.15186913 0.08202208 11.48111108 0.05756924 13.81835938 0.02539062 C15.31643477 0.03360987 16.81449465 0.04584389 18.3125 0.0625 C19.0032814 0.05349167 19.69406281 0.04448334 20.40577698 0.03520203 C24.19243074 0.16268307 26.69957851 0.94921579 29.53930664 3.36303711 C33.01591717 7.31897046 32.86148409 11.16938707 32.67578125 16.23046875 C32.66729156 17.10982086 32.65880188 17.98917297 32.65005493 18.89517212 C32.61662152 21.6879022 32.54136571 24.47768275 32.46484375 27.26953125 C32.43473093 29.16922896 32.40735743 31.06897219 32.3828125 32.96875 C32.31686371 37.61180353 32.21341553 42.25266837 32.08984375 46.89453125 C32.70070328 46.87898697 33.31156281 46.86344269 33.94093323 46.84742737 C40.31620534 46.69219839 46.6909383 46.58683734 53.06762695 46.51000977 C55.44512751 46.47487269 57.82247752 46.42715172 60.19946289 46.36645508 C63.62293675 46.28124416 67.04440682 46.24177388 70.46875 46.2109375 C71.52630997 46.1748085 72.58386993 46.1386795 73.67347717 46.10145569 C78.92212038 46.09868205 82.28964962 46.40145412 86.25805664 50.02709961 C89.10313405 53.41023716 89.987101 55.97239045 90.01953125 60.45703125 C90.02855469 61.66617188 90.03757812 62.8753125 90.046875 64.12109375 C90.00626953 65.98894531 90.00626953 65.98894531 89.96484375 67.89453125 C89.99191406 69.13976562 90.01898437 70.385 90.046875 71.66796875 C90.03785156 72.87710938 90.02882813 74.08625 90.01953125 75.33203125 C90.01163574 76.42386719 90.00374023 77.51570313 89.99560547 78.640625 C88.65799447 83.44592943 86.35034503 86.28497422 82.08984375 88.89453125 C78.18815586 89.80802536 74.45810717 89.71441181 70.46875 89.578125 C69.36885239 89.56822037 68.26895477 89.55831573 67.13572693 89.54811096 C63.6398809 89.50908134 60.14723257 89.42127371 56.65234375 89.33203125 C54.27543613 89.29690294 51.89847905 89.26496662 49.52148438 89.23632812 C43.70985569 89.15935719 37.90007818 89.0423818 32.08984375 88.89453125 C32.17492461 100.26649453 32.27005688 111.63832776 32.37737083 123.01010418 C32.42692064 128.29276186 32.47324736 133.5754034 32.51171875 138.8581543 C32.5491022 143.97410646 32.59559057 149.08990809 32.64790726 154.20572853 C32.66617411 156.13931398 32.68137929 158.07293133 32.69318771 160.006567 C32.75688227 170.09367568 33.0349184 180.13464211 33.86572266 190.19067383 C33.92585226 191.03308719 33.98598186 191.87550055 34.04793358 192.74344158 C34.72263778 199.96103276 36.81471919 206.1404331 41.46484375 211.76953125 C49.68632198 218.42501363 58.91251074 218.87180977 69.08984375 217.89453125 C72.87080847 217.20485981 76.58120317 216.27719075 80.27807617 215.22973633 C84.60673832 214.04276969 87.78396599 213.49818826 92.08984375 214.89453125 C94.56425338 216.51851272 96.26727833 217.6491598 98.08984375 219.89453125 C98.63168794 222.82884088 98.80122991 224.91212688 98.67578125 227.8203125 C98.66729156 228.56790329 98.65880188 229.31549408 98.65005493 230.08573914 C98.61660904 232.46100313 98.54136189 234.83280344 98.46484375 237.20703125 C98.43473205 238.82221639 98.40735833 240.43745506 98.3828125 242.05273438 C98.31684876 246.00132364 98.21340134 249.9473414 98.08984375 253.89453125 C68.42771005 260.71744581 41.06031084 265.52016148 13.1328125 249.8046875 C-0.04058325 241.53538003 -8.13942434 229.10445079 -11.84765625 214.1015625 C-15.31086286 197.56535079 -15.0506705 180.80451943 -15.0078125 163.9921875 C-15.00594324 161.81644219 -15.00452174 159.64069645 -15.00352478 157.46495056 C-14.99973959 151.78845012 -14.9899443 146.11197601 -14.9788208 140.43548584 C-14.96851987 134.6230098 -14.96400871 128.81052944 -14.95898438 122.99804688 C-14.94831773 111.63019688 -14.93129042 100.26236627 -14.91015625 88.89453125 C-15.66111572 88.93118896 -16.4120752 88.96784668 -17.18579102 89.00561523 C-20.61432281 89.15183087 -24.04219826 89.24238195 -27.47265625 89.33203125 C-29.24479492 89.42000977 -29.24479492 89.42000977 -31.05273438 89.50976562 C-40.92254744 89.70329137 -40.92254744 89.70329137 -45.1940918 85.79321289 C-48.01171286 82.32434793 -48.79862 79.59713254 -48.8046875 75.078125 C-48.80919922 73.81935547 -48.81371094 72.56058594 -48.81835938 71.26367188 C-48.78677734 69.96623047 -48.75519531 68.66878906 -48.72265625 67.33203125 C-48.74134766 66.03072266 -48.76003906 64.72941406 -48.77929688 63.38867188 C-48.67650133 52.8331929 -48.67650133 52.8331929 -45.7265625 49.015625 C-40.78620068 45.19830685 -33.91987164 46.28046469 -28.03515625 46.51953125 C-26.77445312 46.54660156 -25.51375 46.57367188 -24.21484375 46.6015625 C-21.11152542 46.67209246 -18.01172621 46.77062096 -14.91015625 46.89453125 C-14.96514282 45.17737915 -14.96514282 45.17737915 -15.02124023 43.42553711 C-15.14845987 39.15623666 -15.22848668 34.88710165 -15.29467773 30.61645508 C-15.32976375 28.77241798 -15.37744761 26.92857402 -15.43823242 25.08520508 C-15.52368539 22.42610984 -15.56295969 19.76959819 -15.59375 17.109375 C-15.629879 16.29242661 -15.666008 15.47547821 -15.70323181 14.6337738 C-15.70636402 10.01125603 -14.98644189 7.36461251 -11.86181641 3.87451172 C-8.17568516 0.65105451 -4.83255144 -0.12142941 0 0 Z " fill="#DB4C3F" transform="translate(501.91015625,74.10546875)"/>
<path d="M0 0 C2.93373584 2.93373584 1.50593159 13.2719505 1.56982422 17.40844727 C1.60643923 19.25264469 1.66096637 21.09657833 1.73388672 22.93969727 C2.33026655 38.24082508 2.33026655 38.24082508 -0.94677734 42.57446289 C-4.30465185 44.88474307 -6.79025787 45.97370126 -10.875 46.0625 C-12.421875 45.5365625 -12.421875 45.5365625 -14 45 C-26.2317111 41.17882133 -36.09052862 40.58660392 -48 46 C-51.58087941 48.06667898 -54.80106732 50.38522025 -58 53 C-58.64839844 53.52335937 -59.29679688 54.04671875 -59.96484375 54.5859375 C-70.68563185 64.20415002 -73.75866007 79.22930091 -75 93 C-75.13124949 96.63756639 -75.12359725 100.27105464 -75.11010742 103.91064453 C-75.11064968 106.11500042 -75.11123664 108.31935629 -75.11186218 110.52371216 C-75.10971993 112.26130484 -75.10971993 112.26130484 -75.10753441 114.0340004 C-75.10399908 120.19328368 -75.12981759 126.35247735 -75.15039062 132.51171875 C-75.17475223 140.33780626 -75.19037413 148.16362585 -75.17504883 155.98974609 C-75.16340257 162.32749308 -75.18073544 168.66458014 -75.21749306 175.00222397 C-75.22611391 177.41433163 -75.22401999 179.82650237 -75.210989 182.23859024 C-75.1941304 185.60918012 -75.21425307 188.97767755 -75.24291992 192.34814453 C-75.22912796 193.34258575 -75.215336 194.33702698 -75.2011261 195.36160278 C-75.27871789 200.06414796 -75.50339015 203.1036559 -78.80989075 206.61721802 C-82.6179691 209.46157844 -85.43971042 209.87478311 -90.03125 209.796875 C-91.16246277 209.80548553 -91.16246277 209.80548553 -92.31652832 209.81427002 C-93.90326968 209.81833396 -95.4901132 209.80739448 -97.07666016 209.78222656 C-99.49480821 209.75006904 -101.90627659 209.78195588 -104.32421875 209.8203125 C-105.87241047 209.8163473 -107.42059805 209.80865918 -108.96875 209.796875 C-109.68454224 209.80902039 -110.40033447 209.82116577 -111.13781738 209.8336792 C-115.00090813 209.72637747 -117.41710785 209.05933635 -120.18938732 206.45631313 C-123.50199768 202.94246861 -123.84963713 199.61941593 -123.76863098 194.92262268 C-123.78372925 193.72790223 -123.78372925 193.72790223 -123.79913253 192.50904602 C-123.82534105 189.84855179 -123.80881329 187.19008682 -123.79223633 184.52954102 C-123.80200691 182.61884155 -123.81431365 180.70815363 -123.82896423 178.79748535 C-123.86057897 173.61343586 -123.85410112 168.43008314 -123.83888459 163.24598432 C-123.82973336 158.91685611 -123.83943675 154.5878555 -123.84922332 150.25873512 C-123.87213187 140.04533649 -123.86455255 129.83227546 -123.8371582 119.61889648 C-123.80935391 109.08492097 -123.82871165 98.55179549 -123.87203389 88.01789147 C-123.90781136 78.97053504 -123.91635999 69.92344065 -123.90264148 60.87602371 C-123.89459663 55.47381444 -123.89638557 50.0720813 -123.92350197 44.66992378 C-123.94764539 39.58961909 -123.93765717 34.51049734 -123.90151405 29.43027496 C-123.89386562 27.56749148 -123.89810346 25.70461499 -123.91518784 23.84189415 C-124.04838026 8.01216854 -124.04838026 8.01216854 -119.67643738 3.39411926 C-116.09638453 0.57506036 -112.90234195 0.09797112 -108.34375 0.0703125 C-107.63778687 0.06361542 -106.93182373 0.05691833 -106.20446777 0.05001831 C-104.72204177 0.04528612 -103.23946589 0.05798579 -101.75732422 0.08740234 C-99.50283651 0.12495276 -97.25809484 0.08770837 -95.00390625 0.04296875 C-83.04598427 0.00155452 -83.04598427 0.00155452 -78.52734375 4.24609375 C-76.36424111 7.03077761 -75.11785228 9.33960203 -75.0625 12.9375 C-75.03285156 13.70964844 -75.00320313 14.48179687 -74.97265625 15.27734375 C-74.98167969 15.84582031 -74.99070312 16.41429687 -75 17 C-73.74509766 15.93072266 -73.74509766 15.93072266 -72.46484375 14.83984375 C-51.89787665 -2.25446776 -25.83799837 -10.22839681 0 0 Z " fill="#DB4C3F" transform="translate(970,120)"/>
<path d="M0 0 C0.70596313 -0.00669708 1.41192627 -0.01339417 2.13928223 -0.02029419 C3.62170823 -0.02502638 5.10428411 -0.01232671 6.58642578 0.01708984 C8.84091349 0.05464026 11.08565516 0.01739587 13.33984375 -0.02734375 C14.78908378 -0.02271749 16.23831779 -0.01374759 17.6875 0 C18.98880859 0.00789551 20.29011719 0.01579102 21.63085938 0.02392578 C25.88775316 1.06239737 27.87343293 2.11249895 30.85661125 5.26360703 C34.32897187 11.48871067 33.29733345 19.58528171 33.23364258 26.52954102 C33.24149502 28.44201045 33.25233945 30.35446958 33.26594543 32.26690674 C33.29355239 37.45095585 33.27711843 42.63400502 33.25109696 47.81802869 C33.22963132 53.24580291 33.24315844 58.67350807 33.25138855 64.1013031 C33.25954488 73.21475011 33.23889608 82.327796 33.20141602 91.44116211 C33.15846739 101.97569064 33.16202778 112.50943309 33.1902836 123.04399353 C33.21631942 133.18192767 33.2085013 143.31956985 33.18558311 153.45750237 C33.17648523 157.77044351 33.17942772 162.08312844 33.19208717 166.39605904 C33.20552981 171.47466748 33.18939034 176.55234504 33.15044975 181.6308136 C33.14092211 183.49400396 33.14158178 185.35727853 33.15319061 187.22045708 C33.16735884 189.76545133 33.14454049 192.30753975 33.11238098 194.85231018 C33.12508319 195.58879321 33.1377854 196.32527624 33.15087253 197.08407694 C33.05450474 201.15426518 32.26855614 203.48441083 29.53313732 206.38600063 C26.18138466 209.5331184 22.76877513 209.80217547 18.3125 209.7265625 C17.18128723 209.73517303 17.18128723 209.73517303 16.02722168 209.74395752 C14.44048032 209.74802146 12.8536368 209.73708198 11.26708984 209.71191406 C8.84894179 209.67975654 6.43747341 209.71164338 4.01953125 209.75 C2.47133953 209.7460348 0.92315195 209.73834668 -0.625 209.7265625 C-1.34079224 209.73870789 -2.05658447 209.75085327 -2.79406738 209.7633667 C-6.65715813 209.65606497 -9.07335785 208.98902385 -11.84563732 206.38600063 C-15.15824768 202.87215611 -15.50588713 199.54910343 -15.42488098 194.85231018 C-15.43997925 193.65758973 -15.43997925 193.65758973 -15.45538253 192.43873352 C-15.48159105 189.77823929 -15.46506329 187.11977432 -15.44848633 184.45922852 C-15.45825691 182.54852905 -15.47056365 180.63784113 -15.48521423 178.72717285 C-15.51682897 173.54312336 -15.51035112 168.35977064 -15.49513459 163.17567182 C-15.48598336 158.84654361 -15.49568675 154.517543 -15.50547332 150.18842262 C-15.52838187 139.97502399 -15.52080255 129.76196296 -15.4934082 119.54858398 C-15.46560391 109.01460847 -15.48496165 98.48148299 -15.52828389 87.94757897 C-15.56406136 78.90022254 -15.57260999 69.85312815 -15.55889148 60.80571121 C-15.55084663 55.40350194 -15.55263557 50.0017688 -15.57975197 44.59961128 C-15.60389539 39.51930659 -15.59390717 34.44018484 -15.55776405 29.35996246 C-15.55011562 27.49717898 -15.55435346 25.63430249 -15.57143784 23.77158165 C-15.70463026 7.94185604 -15.70463026 7.94185604 -11.33268738 3.32380676 C-7.75263453 0.50474786 -4.55859195 0.02765862 0 0 Z " fill="#DB4C3F" transform="translate(1012.65625,120.0703125)"/>
<path d="M0 0 C0.75414185 -0.00574036 1.50828369 -0.01148071 2.28527832 -0.01739502 C3.87201968 -0.02145896 5.4588632 -0.01051948 7.04541016 0.01464844 C9.46355821 0.04680596 11.87502659 0.01491912 14.29296875 -0.0234375 C15.84116047 -0.0194723 17.38934805 -0.01178418 18.9375 0 C20.01118835 -0.01821808 20.01118835 -0.01821808 21.10656738 -0.0368042 C25.01876106 0.07186142 27.52698392 0.81797536 30.41870117 3.3605957 C33.41483365 6.78613386 33.85874668 10.1292844 33.80078125 14.57421875 C33.8129493 15.66857994 33.8129493 15.66857994 33.82536316 16.78504944 C33.83378733 18.32047602 33.82704586 19.85605323 33.8059082 21.39135742 C33.78133021 23.72675302 33.82601949 26.05384431 33.87695312 28.38867188 C33.96908359 40.76137778 33.96908359 40.76137778 30.44921875 45.30859375 C25.16160829 49.35316845 18.08301754 48.835641 11.72607422 48.70947266 C9.47158651 48.67192224 7.22684484 48.70916663 4.97265625 48.75390625 C-6.93268436 48.8111677 -6.93268436 48.8111677 -11.51171875 45.30859375 C-15.67536059 39.92970008 -15.03036337 32.5560504 -14.88891602 26.07202148 C-14.84375917 23.73484962 -14.86821201 21.40560767 -14.90039062 19.06835938 C-14.89217138 17.57028398 -14.87993736 16.0722241 -14.86328125 14.57421875 C-14.87228958 13.88343735 -14.88129791 13.19265594 -14.89057922 12.48094177 C-14.76145716 8.64554382 -13.96240374 6.1974042 -11.48120117 3.3605957 C-7.98593551 0.28728914 -4.53199997 -0.07689786 0 0 Z " fill="#DB4C3F" transform="translate(1012.03125,45.203125)"/>
<path d="M0 0 C0.81919922 -0.020625 1.63839844 -0.04125 2.48242188 -0.0625 C4.85546875 -0.078125 4.85546875 -0.078125 8.8125 0.25 C10.8918184 3.3689776 11.05334548 3.85113482 10.859375 7.33984375 C10.81683594 8.12423828 10.77429688 8.90863281 10.73046875 9.71679688 C10.67503906 10.53212891 10.61960937 11.34746094 10.5625 12.1875 C10.52253906 12.99896484 10.48257813 13.81042969 10.44140625 14.64648438 C10.193428 18.7314233 9.83694364 21.62567504 7.8125 25.25 C4.16668313 25.27887512 0.52089537 25.29675585 -3.125 25.3125 C-4.68637695 25.32506836 -4.68637695 25.32506836 -6.27929688 25.33789062 C-7.26865234 25.34111328 -8.25800781 25.34433594 -9.27734375 25.34765625 C-10.65200806 25.35551147 -10.65200806 25.35551147 -12.05444336 25.36352539 C-14.1875 25.25 -14.1875 25.25 -15.1875 24.25 C-15.28652107 22.71218409 -15.31829567 21.16990556 -15.3203125 19.62890625 C-15.32160156 18.69369141 -15.32289062 17.75847656 -15.32421875 16.79492188 C-15.32035156 15.81072266 -15.31648438 14.82652344 -15.3125 13.8125 C-15.31636719 12.83216797 -15.32023437 11.85183594 -15.32421875 10.84179688 C-15.32292969 9.90529297 -15.32164063 8.96878906 -15.3203125 8.00390625 C-15.31918457 7.14095947 -15.31805664 6.2780127 -15.31689453 5.38891602 C-15.1875 3.25 -15.1875 3.25 -14.1875 1.25 C-9.60161743 -0.15549643 -4.75456255 0.03035635 0 0 Z " fill="#DB4C3F" transform="translate(97.1875,155.75)"/>
<path d="M0 0 C7.59 0 15.18 0 23 0 C23.020625 3.609375 23.04125 7.21875 23.0625 10.9375 C23.071604 12.07695068 23.08070801 13.21640137 23.09008789 14.39038086 C23.09258545 15.28120361 23.09508301 16.17202637 23.09765625 17.08984375 C23.10551147 18.46450806 23.10551147 18.46450806 23.11352539 19.86694336 C23 22 23 22 22 23 C20.45044441 23.09899523 18.89646327 23.13079524 17.34375 23.1328125 C15.93416016 23.13474609 15.93416016 23.13474609 14.49609375 23.13671875 C13.50738281 23.13285156 12.51867187 23.12898438 11.5 23.125 C10.51128906 23.12886719 9.52257812 23.13273437 8.50390625 23.13671875 C7.56417969 23.13542969 6.62445313 23.13414062 5.65625 23.1328125 C4.78806641 23.13168457 3.91988281 23.13055664 3.02539062 23.12939453 C1 23 1 23 0 22 C-0.08700342 20.36527118 -0.10701063 18.72685945 -0.09765625 17.08984375 C-0.09515869 16.199021 -0.09266113 15.30819824 -0.09008789 14.39038086 C-0.08098389 13.25093018 -0.07187988 12.11147949 -0.0625 10.9375 C-0.041875 7.328125 -0.02125 3.71875 0 0 Z " fill="#DB4C3F" transform="translate(49,186)"/>
<path d="M0 0 C5.61 0 11.22 0 17 0 C17.185625 2.43375 17.37125 4.8675 17.5625 7.375 C17.62381104 8.13989746 17.68512207 8.90479492 17.74829102 9.69287109 C18.11111111 14.77777778 18.11111111 14.77777778 17 17 C11.39 17 5.78 17 0 17 C0 11.39 0 5.78 0 0 Z " fill="#DB4C3F" transform="translate(61,118)"/>
<path d="M0 0 C2.64590014 -0.02684679 5.29153096 -0.04676357 7.9375 -0.0625 C8.69224609 -0.07087891 9.44699219 -0.07925781 10.22460938 -0.08789062 C12.14994313 -0.09652441 14.07535581 -0.05224333 16 0 C17 1 17 1 17.09765625 4.59765625 C17.09191272 6.08597255 17.07889891 7.57426296 17.0625 9.0625 C17.041875 11.681875 17.02125 14.30125 17 17 C11.39 17 5.78 17 0 17 C-0.84560134 10.98683494 -0.98008601 5.98941452 0 0 Z " fill="#DB4C3F" transform="translate(60,237)"/>
<path d="M0 0 C5.28 0 10.56 0 16 0 C16 5.28 16 10.56 16 16 C10.72 16 5.44 16 0 16 C-1.36538938 13.26922124 -1.13231826 11.04439633 -1.125 8 C-1.12757812 6.9275 -1.13015625 5.855 -1.1328125 4.75 C-1 2 -1 2 0 0 Z " fill="#DB4C3F" transform="translate(23,153)"/>
</svg>
