<?xml version="1.0" encoding="UTF-8"?>
<svg version="1.1" xmlns="http://www.w3.org/2000/svg" width="256" height="256">
<path d="M0 0 C1.65971077 -0.00744736 1.65971077 -0.00744736 3.35295105 -0.01504517 C7.00581489 -0.02962493 10.6586353 -0.0364618 14.31152344 -0.04199219 C16.85732016 -0.04774703 19.40311687 -0.05350472 21.94891357 -0.05926514 C26.60388176 -0.06842297 31.258837 -0.07472813 35.91381192 -0.07776189 C42.74236013 -0.08223808 49.57070771 -0.09977297 56.39919496 -0.12876248 C62.3344046 -0.15307565 68.26956486 -0.16071062 74.20482635 -0.16243744 C76.71971478 -0.16545644 79.23460252 -0.17345942 81.74945831 -0.18662262 C85.27453133 -0.20375671 88.79912051 -0.20178464 92.32421875 -0.1953125 C93.35417465 -0.20452728 94.38413055 -0.21374207 95.44529724 -0.22323608 C107.06703766 -0.15669653 116.30380547 3.08020745 124.89746094 10.97753906 C134.56334054 21.1575612 135.0714694 33.04435139 135.06616211 46.36352539 C135.06952072 47.57743454 135.07287933 48.79134369 135.07633972 50.04203796 C135.08418756 53.35625801 135.08751587 56.67041538 135.08815551 59.98464036 C135.08886869 62.06003665 135.09100808 64.13542647 135.09365273 66.21082115 C135.10289088 73.46485177 135.10698955 80.71886408 135.10620117 87.97290039 C135.10560087 94.71264271 135.11614728 101.45230487 135.13194484 108.19202691 C135.14506174 113.99695102 135.15038333 119.80184906 135.14974576 125.60678786 C135.14949198 129.06558824 135.15227633 132.52431731 135.16292381 135.9831028 C135.17449068 139.84561866 135.16983265 143.70802633 135.16381836 147.57055664 C135.16943787 148.70179962 135.17505737 149.8330426 135.18084717 150.99856567 C135.13076156 163.7013694 133.0203499 174.60144611 124.23730469 184.20019531 C113.846119 192.99678083 102.31970997 194.31252829 89.25732422 194.30639648 C88.21883331 194.3097551 87.18034241 194.31311371 86.11038208 194.3165741 C82.69564602 194.32603145 79.28095926 194.32802449 75.86621094 194.32910156 C73.48021424 194.33231743 71.09421773 194.33568175 68.70822144 194.33918762 C63.71351667 194.34516561 58.71882918 194.34702886 53.72412109 194.34643555 C47.34005793 194.34633393 40.95610598 194.35999223 34.57206917 194.37720776 C29.64598079 194.38835262 24.71991912 194.390354 19.79381943 194.38982582 C17.44082124 194.39100195 15.08782228 194.39540301 12.73483658 194.40315819 C9.4375667 194.41300957 6.14053585 194.41005983 2.84326172 194.40405273 C1.40122375 194.41248199 1.40122375 194.41248199 -0.06994629 194.42108154 C-12.31917661 194.36467747 -23.31911755 191.95920107 -32.45410156 183.34863281 C-40.14007197 175.10480972 -42.40979709 165.72889623 -42.27441406 154.72753906 C-42.27158417 153.8496019 -42.26875427 152.97166473 -42.26583862 152.06712341 C-42.25471755 149.28581636 -42.22962828 146.50484118 -42.20410156 143.72363281 C-42.19406132 141.8284552 -42.1849373 139.9332725 -42.17675781 138.03808594 C-42.15480471 133.41230864 -42.12033116 128.78677683 -42.07910156 124.16113281 C-36.46910156 124.16113281 -30.85910156 124.16113281 -25.07910156 124.16113281 C-25.07910156 121.19113281 -25.07910156 118.22113281 -25.07910156 115.16113281 C-30.68910156 115.16113281 -36.29910156 115.16113281 -42.07910156 115.16113281 C-42.07910156 110.87113281 -42.07910156 106.58113281 -42.07910156 102.16113281 C-34.15910156 101.66613281 -34.15910156 101.66613281 -26.07910156 101.16113281 C-26.07910156 94.23113281 -26.07910156 87.30113281 -26.07910156 80.16113281 C-29.37910156 79.83113281 -32.67910156 79.50113281 -36.07910156 79.16113281 C-36.40910156 76.52113281 -36.73910156 73.88113281 -37.07910156 71.16113281 C-38.72910156 70.83113281 -40.37910156 70.50113281 -42.07910156 70.16113281 C-42.17880678 64.52356992 -42.25096123 58.88653281 -42.29882812 53.24829102 C-42.31880576 51.33478847 -42.34599755 49.42134589 -42.38085938 47.50805664 C-42.6314709 33.3890457 -42.3937791 20.9737603 -32.07910156 10.16113281 C-22.35404667 1.446216 -12.70889927 0.01368597 0 0 Z M2.92089844 29.16113281 C2.11652344 30.55332031 2.11652344 30.55332031 1.29589844 31.97363281 C-1.25804787 35.4012976 -3.17720234 36.56490131 -7.07910156 38.16113281 C-6.33660156 38.73863281 -5.59410156 39.31613281 -4.82910156 39.91113281 C-1.35033579 42.75739572 1.42421299 45.41610465 3.92089844 49.16113281 C4.64277344 48.08863281 5.36464844 47.01613281 6.10839844 45.91113281 C8.35886839 42.74118513 10.7375776 40.43493341 13.92089844 38.16113281 C12.84839844 37.60425781 11.77589844 37.04738281 10.67089844 36.47363281 C7.27173289 34.54996711 5.16694123 32.39543443 2.92089844 29.16113281 Z M27.92089844 41.16113281 C27.59089844 49.08113281 27.26089844 57.00113281 26.92089844 65.16113281 C21.64089844 65.49113281 16.36089844 65.82113281 10.92089844 66.16113281 C11.25089844 73.42113281 11.58089844 80.68113281 11.92089844 88.16113281 C17.20089844 88.16113281 22.48089844 88.16113281 27.92089844 88.16113281 C27.90518799 89.46147461 27.88947754 90.76181641 27.87329102 92.1015625 C27.81853688 96.97698649 27.78438451 101.85238392 27.75610352 106.72802734 C27.74111971 108.82865995 27.72072562 110.92926183 27.69458008 113.02978516 C26.94712099 134.06066772 26.94712099 134.06066772 36.09667969 152.32128906 C42.14417273 158.42058077 48.97946596 160.38602088 57.38037109 160.48925781 C58.13624512 160.48410156 58.89211914 160.47894531 59.67089844 160.47363281 C60.4564209 160.47234375 61.24194336 160.47105469 62.05126953 160.46972656 C68.40947433 160.36525822 73.8836301 159.23105339 79.92089844 157.16113281 C78.43589844 147.26113281 78.43589844 147.26113281 76.92089844 137.16113281 C74.94089844 137.49113281 72.96089844 137.82113281 70.92089844 138.16113281 C69.38168678 138.26823006 67.83877128 138.33500319 66.29589844 138.34863281 C65.56113281 138.3628125 64.82636719 138.37699219 64.06933594 138.39160156 C61.45897841 138.11158139 60.07171511 137.69304101 57.92089844 136.16113281 C54.56691671 130.93391387 54.4524243 126.39552762 54.40917969 120.38769531 C54.39122849 119.46395111 54.37327728 118.54020691 54.3547821 117.58847046 C54.3008442 114.65440356 54.26683644 111.7204978 54.23339844 108.78613281 C54.20021078 106.79001672 54.16571979 104.79392185 54.12988281 102.79785156 C54.04268669 97.91892423 53.9824772 93.04071902 53.92089844 88.16113281 C61.84089844 88.16113281 69.76089844 88.16113281 77.92089844 88.16113281 C77.92089844 80.90113281 77.92089844 73.64113281 77.92089844 66.16113281 C70.00089844 66.16113281 62.08089844 66.16113281 53.92089844 66.16113281 C53.98339844 58.16113281 53.98339844 58.16113281 54.01098633 55.69238281 C54.01348389 55.02207031 54.01598145 54.35175781 54.01855469 53.66113281 C54.0237915 52.99082031 54.02902832 52.32050781 54.03442383 51.62988281 C53.8732206 48.12431919 53.35616958 44.64330194 52.92089844 41.16113281 C44.67089844 41.16113281 36.42089844 41.16113281 27.92089844 41.16113281 Z M-33.07910156 47.16113281 C-33.07910156 49.80113281 -33.07910156 52.44113281 -33.07910156 55.16113281 C-30.43910156 55.16113281 -27.79910156 55.16113281 -25.07910156 55.16113281 C-25.07910156 52.52113281 -25.07910156 49.88113281 -25.07910156 47.16113281 C-27.71910156 47.16113281 -30.35910156 47.16113281 -33.07910156 47.16113281 Z M-20.07910156 66.16113281 C-20.07910156 70.45113281 -20.07910156 74.74113281 -20.07910156 79.16113281 C-16.11910156 79.16113281 -12.15910156 79.16113281 -8.07910156 79.16113281 C-8.07910156 74.87113281 -8.07910156 70.58113281 -8.07910156 66.16113281 C-12.03910156 66.16113281 -15.99910156 66.16113281 -20.07910156 66.16113281 Z M-12.07910156 91.16113281 C-12.07910156 94.79113281 -12.07910156 98.42113281 -12.07910156 102.16113281 C-8.77910156 102.16113281 -5.47910156 102.16113281 -2.07910156 102.16113281 C-1.35115002 97.95519055 -1.02936342 95.36008536 -2.07910156 91.16113281 C-5.37910156 91.16113281 -8.67910156 91.16113281 -12.07910156 91.16113281 Z M-12.07910156 114.16113281 C-12.07910156 117.46113281 -12.07910156 120.76113281 -12.07910156 124.16113281 C-8.77910156 124.16113281 -5.47910156 124.16113281 -2.07910156 124.16113281 C-2.07910156 120.86113281 -2.07910156 117.56113281 -2.07910156 114.16113281 C-5.37910156 114.16113281 -8.67910156 114.16113281 -12.07910156 114.16113281 Z M-0.07910156 133.16113281 C-0.07910156 137.45113281 -0.07910156 141.74113281 -0.07910156 146.16113281 C4.21089844 146.16113281 8.50089844 146.16113281 12.92089844 146.16113281 C12.92089844 141.87113281 12.92089844 137.58113281 12.92089844 133.16113281 C8.63089844 133.16113281 4.34089844 133.16113281 -0.07910156 133.16113281 Z M-26.07910156 138.16113281 C-26.07910156 141.13113281 -26.07910156 144.10113281 -26.07910156 147.16113281 C-23.43910156 147.16113281 -20.79910156 147.16113281 -18.07910156 147.16113281 C-18.07910156 144.19113281 -18.07910156 141.22113281 -18.07910156 138.16113281 C-20.71910156 138.16113281 -23.35910156 138.16113281 -26.07910156 138.16113281 Z " fill="#DB4C3F" transform="translate(103.0791015625,30.8388671875)"/>
<path d="M0 0 C4.95 0 9.9 0 15 0 C15.125 10.5 15.125 10.5 14 15 C9.38 15 4.76 15 0 15 C-1.11601376 9.4199312 -0.67238197 5.60318306 0 0 Z " fill="#DB4C3F" transform="translate(53,111)"/>
<path d="M0 0 C10.83984375 -0.09765625 10.83984375 -0.09765625 14 0 C15 1 15 1 15.09765625 3.94140625 C15.06510417 7.29427083 15.03255208 10.64713542 15 14 C10.05 14 5.1 14 0 14 C0 9.38 0 4.76 0 0 Z " fill="#DB4C3F" transform="translate(33,128)"/>
<path d="M0 0 C2.57161458 0.03255208 5.14322917 0.06510417 7.71484375 0.09765625 C7.71484375 3.72765625 7.71484375 7.35765625 7.71484375 11.09765625 C0 11.1953125 0 11.1953125 -2.28515625 11.09765625 C-3.28515625 10.09765625 -3.28515625 10.09765625 -3.41796875 8.06640625 C-3.41539063 7.25171875 -3.4128125 6.43703125 -3.41015625 5.59765625 C-3.41273437 4.78296875 -3.4153125 3.96828125 -3.41796875 3.12890625 C-3.22757857 0.21705639 -2.92223949 0.12488203 0 0 Z " fill="#DB4C3F" transform="translate(43.28515625,88.90234375)"/>
<path d="M0 0 C3.3 0 6.6 0 10 0 C10 3.63 10 7.26 10 11 C6.7 11 3.4 11 0 11 C0 7.37 0 3.74 0 0 Z " fill="#DB4C3F" transform="translate(40,157)"/>
<path d="M0 0 C3.3 0 6.6 0 10 0 C10.09765625 7.71484375 10.09765625 7.71484375 10 10 C9 11 9 11 6.93359375 11.09765625 C3.46679688 11.04882812 3.46679688 11.04882812 0 11 C0 7.37 0 3.74 0 0 Z " fill="#DB4C3F" transform="translate(19,109)"/>
</svg>
